<svg xmlns="http://www.w3.org/2000/svg" width="14" height="64" viewBox="0 0 14 64"><path d="M5.5 51.83c-2.94 0-5.33-2.39-5.33-5.33s2.39-5.33 5.33-5.33 5.33 2.39 5.33 5.33-2.39 5.33-5.33 5.33zm0-9.5c-2.3 0-4.17 1.87-4.17 4.17s1.87 4.17 4.17 4.17 4.17-1.87 4.17-4.17-1.87-4.17-4.17-4.17zm3.088 8.079l.814-.813 4.002 4.002-.813.813z" fill="#0070c9"/><path d="M5.5 19.83c-2.94 0-5.33-2.39-5.33-5.33S2.56 9.17 5.5 9.17s5.33 2.39 5.33 5.33-2.39 5.33-5.33 5.33zm0-9.5c-2.3 0-4.17 1.87-4.17 4.17s1.87 4.17 4.17 4.17 4.17-1.87 4.17-4.17-1.87-4.17-4.17-4.17zm3.089 8.079l.813-.813 4.002 4.002-.813.813z" fill="#888"/></svg>