<svg xmlns="http://www.w3.org/2000/svg" width="13" height="86" viewBox="0 0 13 86"><path fill="none" d="M0 0h13v43H0z"/><path d="M12.7 27.8l-3.31-3.31c.68-.86 1.11-1.92 1.11-3.1 0-2.76-2.25-5-5-5s-5 2.25-5 5 2.25 5 5 5c1.16 0 2.22-.42 3.08-1.09l3.31 3.31.81-.81zm-7.2-2.41c-2.2 0-4-1.8-4-4s1.79-4 4-4 4 1.8 4 4-1.8 4-4 4z" fill="#999"/><path d="M12.7 70.8l-3.31-3.31c.68-.86 1.11-1.92 1.11-3.1 0-2.76-2.25-5-5-5s-5 2.25-5 5 2.25 5 5 5c1.16 0 2.22-.42 3.08-1.09l3.31 3.31.81-.81zm-7.2-2.41c-2.2 0-4-1.8-4-4s1.79-4 4-4 4 1.8 4 4-1.8 4-4 4z" fill="#6bf"/><path fill="none" d="M0 43h13v43H0z"/></svg>